<?xml version="1.0" encoding="utf-8"?>
<!-- Generator: Adobe Illustrator 26.0.1, SVG Export Plug-In . SVG Version: 6.00 Build 0)  -->
<svg version="1.1" id="Layer_1" xmlns="http://www.w3.org/2000/svg" xmlns:xlink="http://www.w3.org/1999/xlink" x="0px" y="0px"
	 viewBox="0 0 1080 1080" style="enable-background:new 0 0 1080 1080;" xml:space="preserve">
<style type="text/css">
	.st0{fill:#00B2C4;}
	.st1{fill:#026B70;}
</style>
<path class="st0" d="M723,706.4L357.8,860.7c-51.9,21.9-111.7-2.3-133.6-54.3L70.5,443.2c-21.9-51.9,2.3-111.7,54.3-133.6L490,155.2
	c51.9-21.9,111.7,2.3,133.6,54.3l153.6,363.4C799.1,624.6,774.9,684.5,723,706.4z"/>
<path class="st0" d="M955.2,822.7L713.5,924.8c-51.9,21.9-111.7-2.3-133.6-54.3L478.4,630.4c-21.9-51.9,2.3-111.7,54.3-133.6
	l241.7-102.1c51.9-21.9,111.7,2.3,133.6,54.3l101.5,240.2C1031.4,741,1007.1,800.7,955.2,822.7z"/>
<path class="st1" d="M777.5,572.8l-64.3-152.2l-180.3,76.2c-51.9,21.9-76.2,81.8-54.3,133.6l64.3,152.2l180.3-76.2
	C775.1,684.5,799.3,624.6,777.5,572.8z"/>
</svg>
