<?xml version="1.0" encoding="utf-8"?>
<!-- Generator: Adobe Illustrator 26.0.1, SVG Export Plug-In . SVG Version: 6.00 Build 0)  -->
<svg version="1.1" id="Layer_1" xmlns="http://www.w3.org/2000/svg" xmlns:xlink="http://www.w3.org/1999/xlink" x="0px" y="0px"
	 viewBox="0 0 1080 1080" style="enable-background:new 0 0 1080 1080;" xml:space="preserve">
<style type="text/css">
	.st0{fill:#00B2C4;}
	.st1{fill:#026B70;}
</style>
<path class="st0" d="M746.1,727.4L334.8,901.2c-58.4,24.7-125.8-2.6-150.5-61.1L11.3,431c-24.7-58.4,2.6-125.8,61.1-150.5
	l411.3-173.8c58.4-24.7,125.8,2.6,150.5,61.1l173,409.2C831.8,635.3,804.5,702.7,746.1,727.4z"/>
<path class="st0" d="M1007.6,858.3l-272.2,115c-58.4,24.7-125.8-2.6-150.5-61.1L470.6,641.8c-24.7-58.4,2.6-125.8,61.1-150.5
	l272.2-115c58.4-24.7,125.8,2.6,150.5,61.1l114.3,270.5C1093.4,766.3,1066,833.6,1007.6,858.3z"/>
<path class="st1" d="M807.4,576.9l-72.4-171.4l-203,85.8c-58.4,24.7-85.8,92.1-61.1,150.5l72.4,171.4l203-85.8
	C804.7,702.7,832,635.3,807.4,576.9z"/>
</svg>
